<svg xmlns="http://www.w3.org/2000/svg" width="960" height="720" viewBox="0 0 960 720" role="img" aria-label="苹果风格海报示例图">
  <defs>
    <linearGradient id="bg" x1="0" x2="1" y1="0" y2="1">
      <stop stop-color="#f8fafc"/>
      <stop offset="1" stop-color="#dbeafe"/>
    </linearGradient>
    <filter id="shadow" x="-20%" y="-20%" width="140%" height="140%">
      <feDropShadow dx="0" dy="24" stdDeviation="24" flood-color="#0f172a" flood-opacity=".16"/>
    </filter>
  </defs>
  <rect width="960" height="720" fill="url(#bg)"/>
  <circle cx="740" cy="120" r="190" fill="#ffffff" opacity=".7"/>
  <circle cx="190" cy="620" r="210" fill="#bfdbfe" opacity=".45"/>
  <rect x="170" y="118" width="620" height="484" rx="56" fill="#ffffff" filter="url(#shadow)"/>
  <text x="232" y="250" fill="#111827" font-family="Arial, sans-serif" font-size="62" font-weight="700">Banana Prompt</text>
  <text x="232" y="322" fill="#111827" font-family="Arial, sans-serif" font-size="62" font-weight="700">Quicker</text>
  <text x="234" y="392" fill="#475569" font-family="Arial, sans-serif" font-size="26">Apple style poster</text>
  <rect x="232" y="452" width="260" height="16" rx="8" fill="#111827"/>
  <rect x="232" y="490" width="420" height="14" rx="7" fill="#cbd5e1"/>
  <rect x="232" y="522" width="330" height="14" rx="7" fill="#e2e8f0"/>
  <circle cx="660" cy="478" r="46" fill="#facc15"/>
  <path d="M659 433c8-28 29-48 56-55-4 31-21 52-56 55Z" fill="#22c55e"/>
</svg>
