<svg xmlns="http://www.w3.org/2000/svg" width="960" height="720" viewBox="0 0 960 720" role="img" aria-label="Q版表情包示例图">
  <rect width="960" height="720" fill="#fef3c7"/>
  <g fill="#fff" stroke="#f59e0b" stroke-width="4">
    <rect x="112" y="92" width="168" height="132" rx="24"/>
    <rect x="304" y="92" width="168" height="132" rx="24"/>
    <rect x="496" y="92" width="168" height="132" rx="24"/>
    <rect x="688" y="92" width="168" height="132" rx="24"/>
    <rect x="112" y="264" width="168" height="132" rx="24"/>
    <rect x="304" y="264" width="168" height="132" rx="24"/>
    <rect x="496" y="264" width="168" height="132" rx="24"/>
    <rect x="688" y="264" width="168" height="132" rx="24"/>
    <rect x="112" y="436" width="168" height="132" rx="24"/>
    <rect x="304" y="436" width="168" height="132" rx="24"/>
    <rect x="496" y="436" width="168" height="132" rx="24"/>
    <rect x="688" y="436" width="168" height="132" rx="24"/>
  </g>
  <g fill="#111827">
    <circle cx="185" cy="150" r="11"/><circle cx="225" cy="150" r="11"/><path d="M180 182c26 18 48 18 74 0" fill="none" stroke="#111827" stroke-width="8" stroke-linecap="round"/>
    <circle cx="377" cy="322" r="11"/><circle cx="417" cy="322" r="11"/><path d="M372 356h52" stroke="#111827" stroke-width="8" stroke-linecap="round"/>
    <circle cx="569" cy="494" r="11"/><circle cx="609" cy="494" r="11"/><path d="M562 530c28-16 56-16 84 0" fill="none" stroke="#111827" stroke-width="8" stroke-linecap="round"/>
  </g>
  <text x="284" y="646" fill="#92400e" font-family="Arial, sans-serif" font-size="42" font-weight="800">LINE Meme Pack</text>
</svg>
